<svg width="280" height="201" viewBox="0 0 280 201" fill="none" xmlns="http://www.w3.org/2000/svg">
<path d="M224.853 31.2533L231.997 53.2401C232.934 56.1243 235.622 58.077 238.655 58.077L261.773 58.077C264.679 58.077 265.887 61.7959 263.536 63.5041L244.833 77.0927C242.38 78.8752 241.353 82.0348 242.29 84.9189L249.434 106.906C250.332 109.67 247.169 111.968 244.818 110.26L226.114 96.6712C223.661 94.8887 220.339 94.8887 217.886 96.6712L199.182 110.26C196.831 111.968 193.668 109.67 194.566 106.906L201.71 84.9189C202.647 82.0348 201.62 78.8752 199.167 77.0927L180.464 63.5041C178.113 61.7959 179.321 58.077 182.227 58.077L205.345 58.077C208.378 58.077 211.066 56.1243 212.003 53.2401L219.147 31.2533C220.045 28.4894 223.955 28.4894 224.853 31.2533Z" fill="#9DBEDF" stroke="black" stroke-width="4"/>
<path d="M195.5 82H84.5V70.5001C84.5 65 58 75.5 58 82V143C58 150.5 84.5 159.5 84.5 154.5V144H195.5V154.5C195.5 160 221.5 151.5 221.5 143V82C221.5 75 195.5 67.5 195.5 72V82Z" fill="#616976" stroke="black" stroke-width="4"/>
<rect x="69" y="97" width="22" height="7" rx="3.5" fill="#B7A790" stroke="black" stroke-width="4"/>
<circle cx="203.5" cy="101.5" r="3.5" fill="#B7A790" stroke="black" stroke-width="4"/>
<path d="M160.5 29.5V31.5H162.5H188V82H93V10V9.95003L92.9978 9.90675C92.9978 9.90653 92.9978 9.90628 92.9978 9.906L92.9978 9.90576L92.9978 9.90591C92.9978 9.90495 92.9977 9.90364 92.9977 9.902C92.9974 9.8936 92.9969 9.87641 92.9964 9.85104C92.9955 9.80022 92.9948 9.71698 92.9968 9.60602C93.0007 9.38338 93.0153 9.05342 93.0587 8.65291C93.1467 7.84081 93.347 6.79672 93.7782 5.78228C94.2065 4.77443 94.8372 3.85276 95.7623 3.17997C96.6697 2.52002 97.9957 2 100 2H134.813H134.982H135.151H135.32H135.488H135.826H135.994H136.162H136.33H136.498H136.666H136.834H137.001H137.169H137.503H137.669H137.836H138.003H138.169H138.335H138.501H138.666H138.832H138.997H139.162H139.327H139.491H139.82H139.984H140.147H140.799H141.447H142.09H142.729H143.362H143.99H144.613H144.768H144.922H145.23H146.444H147.632H149.918H151.012H151.545H151.677H151.809H151.939H152.07H152.585H153.09H153.215H153.339H153.462H153.585H153.708H153.829H153.95H154.07H154.19H154.309H154.427H154.545H154.662H154.778H154.893H155.008H155.122H155.236H155.349H155.461H155.683H155.793H155.902H156.01H156.118H156.225H156.331H156.437H156.541H156.645H156.748H156.851H156.953H157.053H157.154H157.253H157.352H157.449H157.546H157.642H157.738H157.832H157.926H158.019H158.111H158.202H158.293H158.383H158.471H158.559H158.646H158.733H158.818H158.903H158.986H159.069H159.151H159.232H159.312H159.392H159.47H159.547H159.624H159.7H159.775H159.848H159.921H159.994H160.065H160.135H160.204H160.272H160.34H160.406H160.472H160.5V29.5ZM164.5 4.96555L173.539 14.366L185.479 27.5H164.5V4.96555Z" fill="#E5D9CD" stroke="black" stroke-width="4"/>
<path d="M60.8532 100.253L67.9971 122.24C68.9342 125.124 71.6219 127.077 74.6545 127.077L97.7729 127.077C100.679 127.077 101.887 130.796 99.5362 132.504L80.8331 146.093C78.3797 147.875 77.3531 151.035 78.2902 153.919L85.4342 175.906C86.3322 178.67 83.1688 180.968 80.8176 179.26L62.1145 165.671C59.6611 163.889 56.3389 163.889 53.8855 165.671L35.1824 179.26C32.8312 180.968 29.6678 178.67 30.5659 175.906L37.7098 153.919C38.6469 151.035 37.6203 147.875 35.1669 146.093L16.4638 132.504C14.1126 130.796 15.321 127.077 18.2271 127.077L41.3455 127.077C44.3781 127.077 47.0658 125.124 48.0029 122.24L55.1468 100.253C56.0449 97.4894 59.9551 97.4894 60.8532 100.253Z" fill="#9DBEDF" stroke="black" stroke-width="4"/>
<rect x="93" y="144" width="95" height="25" fill="#E5D9CD" stroke="black" stroke-width="4"/>
<path d="M102 40H135.5M102 40H135.5" stroke="black" stroke-width="4"/>
<path d="M102 50.5H135.5M102 50.5H135.5" stroke="black" stroke-width="4"/>
<path d="M160 72.5H179M160 72.5H179" stroke="black" stroke-width="4"/>
<path d="M102 61.5H135.5M102 61.5H135.5" stroke="black" stroke-width="4"/>
<path d="M102 72.5H146M102 72.5H146" stroke="black" stroke-width="4"/>
<path d="M146 62V40H175V62H157" stroke="black" stroke-width="4"/>
<path d="M109.496 113.283C108.051 113.283 106.736 112.977 105.551 112.365C104.353 111.76 103.396 110.848 102.68 109.631C101.97 108.413 101.615 106.916 101.615 105.139C101.615 103.654 101.885 102.303 102.426 101.086C102.966 99.8815 103.757 98.9277 104.799 98.2246C105.847 97.515 107.113 97.1602 108.598 97.1602C109.353 97.1602 110.03 97.3392 110.629 97.6973C111.234 98.0488 111.671 98.4948 111.938 99.0352L112.338 97.4629H115.375V103.84H112.26V103.518C112.26 102.691 112.068 102.014 111.684 101.486C111.306 100.959 110.743 100.695 109.994 100.695C109.493 100.695 109.031 100.887 108.607 101.271C108.191 101.662 107.862 102.173 107.621 102.805C107.38 103.43 107.26 104.074 107.26 104.738C107.26 106.047 107.585 107.072 108.236 107.814C108.887 108.55 109.779 108.918 110.912 108.918C111.713 108.918 112.455 108.785 113.139 108.518C113.829 108.251 114.395 107.964 114.838 107.658L115.053 107.844V112.004C114.226 112.479 113.354 112.811 112.436 113C111.518 113.189 110.538 113.283 109.496 113.283ZM126.535 113.283C124.914 113.283 123.511 112.935 122.326 112.238C121.148 111.542 120.249 110.585 119.631 109.367C119.019 108.15 118.713 106.76 118.713 105.197C118.713 103.576 119.019 102.163 119.631 100.959C120.243 99.748 121.135 98.8138 122.307 98.1562C123.485 97.4922 124.895 97.1602 126.535 97.1602C128.169 97.1602 129.576 97.4889 130.754 98.1465C131.926 98.8105 132.818 99.748 133.43 100.959C134.048 102.17 134.357 103.583 134.357 105.197C134.357 106.76 134.051 108.15 133.439 109.367C132.827 110.585 131.929 111.542 130.744 112.238C129.566 112.935 128.163 113.283 126.535 113.283ZM126.535 109.816C127.238 109.816 127.775 109.39 128.146 108.537C128.524 107.684 128.713 106.545 128.713 105.119C128.713 103.732 128.531 102.635 128.166 101.828C127.808 101.021 127.264 100.617 126.535 100.617C125.799 100.617 125.253 101.021 124.895 101.828C124.536 102.635 124.357 103.732 124.357 105.119C124.357 106.545 124.543 107.684 124.914 108.537C125.285 109.39 125.826 109.816 126.535 109.816ZM146.67 113H138.271V109.504H139.795V100.9H138.311V97.4434H146.631C147.907 97.4434 149.036 97.5833 150.02 97.8633C151.009 98.1367 151.784 98.599 152.344 99.25C152.91 99.901 153.193 100.796 153.193 101.936C153.193 103.928 152.653 105.36 151.572 106.232C150.492 107.105 148.87 107.541 146.709 107.541C146.156 107.541 145.671 107.508 145.254 107.443V109.504H146.67V113ZM145.273 100.9V104.357H145.674C147.152 104.357 147.891 103.706 147.891 102.404C147.891 101.923 147.728 101.551 147.402 101.291C147.077 101.031 146.641 100.9 146.094 100.9H145.273ZM168.455 109.504V113H159.979V109.504H161.473V106.643L157.381 100.9H156.277V97.4629H164.598V100.9H163.719L165.496 103.498L166.893 100.9H165.477V97.4629H171.697V100.9H169.939L166.922 106.115V109.504H168.455Z" fill="white"/>
<path d="M125.057 133.283C124.523 133.283 124.067 133.244 123.689 133.166C123.312 133.088 122.96 132.961 122.635 132.785C122.316 132.609 121.974 132.382 121.609 132.102L121.268 133H118.113V128.244H121.248C121.45 128.791 121.759 129.178 122.176 129.406C122.599 129.628 123.117 129.738 123.729 129.738C124.106 129.738 124.428 129.663 124.695 129.514C124.962 129.357 125.096 129.152 125.096 128.898C125.096 128.579 124.959 128.342 124.686 128.186C124.412 128.023 124.028 127.873 123.533 127.736C122.902 127.567 122.329 127.388 121.814 127.199C121.307 127.01 120.851 126.815 120.447 126.613C119.64 126.21 118.989 125.637 118.494 124.895C117.999 124.152 117.752 123.166 117.752 121.936C117.752 120.992 117.957 120.158 118.367 119.436C118.771 118.719 119.35 118.163 120.105 117.766C120.867 117.362 121.762 117.16 122.791 117.16C124.048 117.16 125.04 117.561 125.77 118.361L126.268 117.443H129.07V122.102H126.072C125.792 121.516 125.483 121.109 125.145 120.881C124.806 120.653 124.34 120.539 123.748 120.539C123.299 120.539 122.951 120.62 122.703 120.783C122.456 120.939 122.332 121.158 122.332 121.438C122.332 121.75 122.511 121.988 122.869 122.15C123.221 122.32 123.722 122.476 124.373 122.619C125.512 122.88 126.495 123.208 127.322 123.605C128.13 124.003 128.774 124.566 129.256 125.295C129.744 126.018 129.988 126.952 129.988 128.098C129.988 129.068 129.786 129.947 129.383 130.734C128.973 131.522 128.39 132.144 127.635 132.6C126.886 133.055 126.027 133.283 125.057 133.283ZM144.576 129.484V133H135.875V129.484H137.477V120.9H136.1L135.68 123.576H132.936V117.463H147.555V123.576H144.82L144.4 120.9H142.975V129.484H144.576ZM156.254 129.562V133H149.398V129.562H150.941L153.617 120.9H151.576V117.463H161.254L164.721 129.562H166.254V133H157.514V129.562H158.783L158.363 127.902H154.838L154.398 129.562H156.254ZM157.895 125.539L156.762 120.783L155.336 125.539H157.895ZM177.648 133H169.533V129.562H171.096V120.9H169.533V117.463H179.514C181.128 117.463 182.313 117.788 183.068 118.439C183.83 119.09 184.211 120.171 184.211 121.682C184.211 122.691 183.928 123.469 183.361 124.016C182.795 124.562 181.991 124.93 180.949 125.119C181.887 125.269 182.561 125.62 182.971 126.174C183.387 126.727 183.596 127.417 183.596 128.244V129.504H185.773V133H182.629C181.958 133 181.418 132.977 181.008 132.932C180.598 132.88 180.272 132.762 180.031 132.58C179.797 132.391 179.602 132.098 179.445 131.701C179.211 131.102 179.094 130.103 179.094 128.703C179.094 127.902 178.964 127.31 178.703 126.926C178.443 126.535 177.967 126.34 177.277 126.34H176.096V129.562H177.648V133ZM176.096 120.9V124.123H177.434C178.143 124.123 178.671 123.996 179.016 123.742C179.361 123.488 179.533 123.042 179.533 122.404C179.533 121.936 179.354 121.568 178.996 121.301C178.645 121.034 178.189 120.9 177.629 120.9H176.096Z" fill="white"/>
<path d="M105.7 154L104.61 152.315L105.265 151.92L106.62 154H105.7ZM103.425 154V150.5H104.23V154H103.425ZM103.995 152.59V151.915H105.215V152.59H103.995ZM105.34 152.34L104.595 152.25L105.73 150.5H106.585L105.34 152.34ZM108.66 154.06C108.383 154.06 108.126 154.015 107.89 153.925C107.656 153.835 107.453 153.708 107.28 153.545C107.11 153.382 106.976 153.19 106.88 152.97C106.786 152.75 106.74 152.51 106.74 152.25C106.74 151.99 106.786 151.75 106.88 151.53C106.976 151.31 107.111 151.118 107.285 150.955C107.458 150.792 107.661 150.665 107.895 150.575C108.128 150.485 108.381 150.44 108.655 150.44C108.931 150.44 109.185 150.485 109.415 150.575C109.648 150.665 109.85 150.792 110.02 150.955C110.193 151.118 110.328 151.31 110.425 151.53C110.521 151.747 110.57 151.987 110.57 152.25C110.57 152.51 110.521 152.752 110.425 152.975C110.328 153.195 110.193 153.387 110.02 153.55C109.85 153.71 109.648 153.835 109.415 153.925C109.185 154.015 108.933 154.06 108.66 154.06ZM108.655 153.37C108.811 153.37 108.955 153.343 109.085 153.29C109.218 153.237 109.335 153.16 109.435 153.06C109.535 152.96 109.611 152.842 109.665 152.705C109.721 152.568 109.75 152.417 109.75 152.25C109.75 152.083 109.721 151.932 109.665 151.795C109.611 151.658 109.535 151.54 109.435 151.44C109.338 151.34 109.223 151.263 109.09 151.21C108.956 151.157 108.811 151.13 108.655 151.13C108.498 151.13 108.353 151.157 108.22 151.21C108.09 151.263 107.975 151.34 107.875 151.44C107.775 151.54 107.696 151.658 107.64 151.795C107.586 151.932 107.56 152.083 107.56 152.25C107.56 152.413 107.586 152.565 107.64 152.705C107.696 152.842 107.773 152.96 107.87 153.06C107.97 153.16 108.086 153.237 108.22 153.29C108.353 153.343 108.498 153.37 108.655 153.37ZM111.194 154V150.5H114.384V154H113.579V150.975L113.764 151.16H111.814L111.999 150.975V154H111.194ZM115.251 154V150.5H116.056V152.78L117.726 150.5H118.486V154H117.686V151.725L116.016 154H115.251ZM119.358 154V150.5H120.873C121.186 150.5 121.456 150.552 121.683 150.655C121.91 150.755 122.085 150.9 122.208 151.09C122.331 151.28 122.393 151.507 122.393 151.77C122.393 152.03 122.331 152.255 122.208 152.445C122.085 152.635 121.91 152.782 121.683 152.885C121.456 152.985 121.186 153.035 120.873 153.035H119.808L120.168 152.67V154H119.358ZM120.168 152.76L119.808 152.375H120.828C121.078 152.375 121.265 152.322 121.388 152.215C121.511 152.108 121.573 151.96 121.573 151.77C121.573 151.577 121.511 151.427 121.388 151.32C121.265 151.213 121.078 151.16 120.828 151.16H119.808L120.168 150.775V152.76ZM122.356 154L123.916 150.5H124.716L126.281 154H125.431L124.151 150.91H124.471L123.186 154H122.356ZM123.136 153.25L123.351 152.635H125.151L125.371 153.25H123.136ZM126.8 154.055C126.74 154.055 126.677 154.05 126.61 154.04C126.547 154.03 126.477 154.017 126.4 154L126.45 153.315C126.497 153.328 126.545 153.335 126.595 153.335C126.732 153.335 126.838 153.28 126.915 153.17C126.992 153.057 127.047 152.895 127.08 152.685C127.113 152.475 127.135 152.22 127.145 151.92L127.195 150.5H129.885V154H129.085V150.975L129.27 151.16H127.725L127.89 150.965L127.86 151.89C127.85 152.233 127.827 152.538 127.79 152.805C127.753 153.072 127.697 153.298 127.62 153.485C127.543 153.672 127.438 153.813 127.305 153.91C127.172 154.007 127.003 154.055 126.8 154.055ZM132.454 151.65C132.878 151.65 133.204 151.745 133.434 151.935C133.664 152.122 133.779 152.403 133.779 152.78C133.779 153.18 133.651 153.483 133.394 153.69C133.141 153.897 132.789 154 132.339 154H130.759V150.5H131.564V151.65H132.454ZM132.294 153.4C132.501 153.4 132.664 153.348 132.784 153.245C132.904 153.142 132.964 152.992 132.964 152.795C132.964 152.602 132.904 152.463 132.784 152.38C132.668 152.293 132.504 152.25 132.294 152.25H131.564V153.4H132.294ZM136.763 150.5H137.573V154H136.763V150.5ZM135.173 154H134.363V150.5H135.173V154ZM136.823 152.565H135.113V151.88H136.823V152.565ZM140.125 154.06C139.848 154.06 139.591 154.015 139.355 153.925C139.121 153.835 138.918 153.708 138.745 153.545C138.575 153.382 138.441 153.19 138.345 152.97C138.251 152.75 138.205 152.51 138.205 152.25C138.205 151.99 138.251 151.75 138.345 151.53C138.441 151.31 138.576 151.118 138.75 150.955C138.923 150.792 139.126 150.665 139.36 150.575C139.593 150.485 139.846 150.44 140.12 150.44C140.396 150.44 140.65 150.485 140.88 150.575C141.113 150.665 141.315 150.792 141.485 150.955C141.658 151.118 141.793 151.31 141.89 151.53C141.986 151.747 142.035 151.987 142.035 152.25C142.035 152.51 141.986 152.752 141.89 152.975C141.793 153.195 141.658 153.387 141.485 153.55C141.315 153.71 141.113 153.835 140.88 153.925C140.65 154.015 140.398 154.06 140.125 154.06ZM140.12 153.37C140.276 153.37 140.42 153.343 140.55 153.29C140.683 153.237 140.8 153.16 140.9 153.06C141 152.96 141.076 152.842 141.13 152.705C141.186 152.568 141.215 152.417 141.215 152.25C141.215 152.083 141.186 151.932 141.13 151.795C141.076 151.658 141 151.54 140.9 151.44C140.803 151.34 140.688 151.263 140.555 151.21C140.421 151.157 140.276 151.13 140.12 151.13C139.963 151.13 139.818 151.157 139.685 151.21C139.555 151.263 139.44 151.34 139.34 151.44C139.24 151.54 139.161 151.658 139.105 151.795C139.051 151.932 139.025 152.083 139.025 152.25C139.025 152.413 139.051 152.565 139.105 152.705C139.161 152.842 139.238 152.96 139.335 153.06C139.435 153.16 139.551 153.237 139.685 153.29C139.818 153.343 139.963 153.37 140.12 153.37ZM143.404 151.91H145.089V152.54H143.404V151.91ZM143.464 153.35H145.369V154H142.659V150.5H145.304V151.15H143.464V153.35ZM132.014 161.06C131.738 161.06 131.481 161.015 131.244 160.925C131.011 160.835 130.808 160.708 130.634 160.545C130.464 160.382 130.331 160.19 130.234 159.97C130.141 159.75 130.094 159.51 130.094 159.25C130.094 158.99 130.141 158.75 130.234 158.53C130.331 158.31 130.466 158.118 130.639 157.955C130.813 157.792 131.016 157.665 131.249 157.575C131.483 157.485 131.736 157.44 132.009 157.44C132.286 157.44 132.539 157.485 132.769 157.575C133.003 157.665 133.204 157.792 133.374 157.955C133.548 158.118 133.683 158.31 133.779 158.53C133.876 158.747 133.924 158.987 133.924 159.25C133.924 159.51 133.876 159.752 133.779 159.975C133.683 160.195 133.548 160.387 133.374 160.55C133.204 160.71 133.003 160.835 132.769 160.925C132.539 161.015 132.288 161.06 132.014 161.06ZM132.009 160.37C132.166 160.37 132.309 160.343 132.439 160.29C132.573 160.237 132.689 160.16 132.789 160.06C132.889 159.96 132.966 159.842 133.019 159.705C133.076 159.568 133.104 159.417 133.104 159.25C133.104 159.083 133.076 158.932 133.019 158.795C132.966 158.658 132.889 158.54 132.789 158.44C132.693 158.34 132.578 158.263 132.444 158.21C132.311 158.157 132.166 158.13 132.009 158.13C131.853 158.13 131.708 158.157 131.574 158.21C131.444 158.263 131.329 158.34 131.229 158.44C131.129 158.54 131.051 158.658 130.994 158.795C130.941 158.932 130.914 159.083 130.914 159.25C130.914 159.413 130.941 159.565 130.994 159.705C131.051 159.842 131.128 159.96 131.224 160.06C131.324 160.16 131.441 160.237 131.574 160.29C131.708 160.343 131.853 160.37 132.009 160.37ZM134.548 161V157.5H137.373V158.145H135.353V158.865H136.323C136.747 158.865 137.068 158.953 137.288 159.13C137.512 159.307 137.623 159.563 137.623 159.9C137.623 160.247 137.5 160.517 137.253 160.71C137.007 160.903 136.658 161 136.208 161H134.548ZM135.353 160.4H136.163C136.37 160.4 136.528 160.36 136.638 160.28C136.748 160.197 136.803 160.077 136.803 159.92C136.803 159.613 136.59 159.46 136.163 159.46H135.353V160.4ZM139.915 161.06C139.638 161.06 139.381 161.015 139.145 160.925C138.911 160.835 138.708 160.708 138.535 160.545C138.365 160.382 138.231 160.19 138.135 159.97C138.041 159.75 137.995 159.51 137.995 159.25C137.995 158.99 138.041 158.75 138.135 158.53C138.231 158.31 138.366 158.118 138.54 157.955C138.713 157.792 138.916 157.665 139.15 157.575C139.383 157.485 139.636 157.44 139.91 157.44C140.186 157.44 140.44 157.485 140.67 157.575C140.903 157.665 141.105 157.792 141.275 157.955C141.448 158.118 141.583 158.31 141.68 158.53C141.776 158.747 141.825 158.987 141.825 159.25C141.825 159.51 141.776 159.752 141.68 159.975C141.583 160.195 141.448 160.387 141.275 160.55C141.105 160.71 140.903 160.835 140.67 160.925C140.44 161.015 140.188 161.06 139.915 161.06ZM139.91 160.37C140.066 160.37 140.21 160.343 140.34 160.29C140.473 160.237 140.59 160.16 140.69 160.06C140.79 159.96 140.866 159.842 140.92 159.705C140.976 159.568 141.005 159.417 141.005 159.25C141.005 159.083 140.976 158.932 140.92 158.795C140.866 158.658 140.79 158.54 140.69 158.44C140.593 158.34 140.478 158.263 140.345 158.21C140.211 158.157 140.066 158.13 139.91 158.13C139.753 158.13 139.608 158.157 139.475 158.21C139.345 158.263 139.23 158.34 139.13 158.44C139.03 158.54 138.951 158.658 138.895 158.795C138.841 158.932 138.815 159.083 138.815 159.25C138.815 159.413 138.841 159.565 138.895 159.705C138.951 159.842 139.028 159.96 139.125 160.06C139.225 160.16 139.341 160.237 139.475 160.29C139.608 160.343 139.753 160.37 139.91 160.37ZM142.449 161V157.5H143.964C144.277 157.5 144.547 157.552 144.774 157.655C145 157.755 145.175 157.9 145.299 158.09C145.422 158.28 145.484 158.507 145.484 158.77C145.484 159.03 145.422 159.255 145.299 159.445C145.175 159.635 145 159.782 144.774 159.885C144.547 159.985 144.277 160.035 143.964 160.035H142.899L143.259 159.67V161H142.449ZM143.259 159.76L142.899 159.375H143.919C144.169 159.375 144.355 159.322 144.479 159.215C144.602 159.108 144.664 158.96 144.664 158.77C144.664 158.577 144.602 158.427 144.479 158.32C144.355 158.213 144.169 158.16 143.919 158.16H142.899L143.259 157.775V159.76ZM146.06 160.34C146.253 160.397 146.415 160.413 146.545 160.39C146.678 160.363 146.797 160.27 146.9 160.11L147.07 159.855L147.145 159.77L148.305 157.5H149.1L147.61 160.27C147.477 160.52 147.318 160.712 147.135 160.845C146.955 160.978 146.757 161.053 146.54 161.07C146.323 161.09 146.098 161.052 145.865 160.955L146.06 160.34ZM147.13 160.445L145.55 157.5H146.415L147.575 159.85L147.13 160.445ZM151.746 160.64V158.16H150.546L150.531 158.67C150.521 158.887 150.506 159.092 150.486 159.285C150.47 159.478 150.443 159.655 150.406 159.815C150.37 159.972 150.321 160.105 150.261 160.215C150.205 160.325 150.133 160.403 150.046 160.45L149.181 160.34C149.301 160.343 149.4 160.302 149.476 160.215C149.556 160.128 149.62 160.007 149.666 159.85C149.713 159.69 149.746 159.503 149.766 159.29C149.79 159.077 149.806 158.845 149.816 158.595L149.856 157.5H152.546V160.64H151.746ZM149.066 161.725L149.071 160.34H153.036V161.725H152.286V161H149.816V161.725H149.066ZM155.256 161.06C154.98 161.06 154.723 161.015 154.486 160.925C154.253 160.835 154.05 160.708 153.876 160.545C153.706 160.382 153.573 160.19 153.476 159.97C153.383 159.75 153.336 159.51 153.336 159.25C153.336 158.99 153.383 158.75 153.476 158.53C153.573 158.31 153.708 158.118 153.881 157.955C154.055 157.792 154.258 157.665 154.491 157.575C154.725 157.485 154.978 157.44 155.251 157.44C155.528 157.44 155.781 157.485 156.011 157.575C156.245 157.665 156.446 157.792 156.616 157.955C156.79 158.118 156.925 158.31 157.021 158.53C157.118 158.747 157.166 158.987 157.166 159.25C157.166 159.51 157.118 159.752 157.021 159.975C156.925 160.195 156.79 160.387 156.616 160.55C156.446 160.71 156.245 160.835 156.011 160.925C155.781 161.015 155.53 161.06 155.256 161.06ZM155.251 160.37C155.408 160.37 155.551 160.343 155.681 160.29C155.815 160.237 155.931 160.16 156.031 160.06C156.131 159.96 156.208 159.842 156.261 159.705C156.318 159.568 156.346 159.417 156.346 159.25C156.346 159.083 156.318 158.932 156.261 158.795C156.208 158.658 156.131 158.54 156.031 158.44C155.935 158.34 155.82 158.263 155.686 158.21C155.553 158.157 155.408 158.13 155.251 158.13C155.095 158.13 154.95 158.157 154.816 158.21C154.686 158.263 154.571 158.34 154.471 158.44C154.371 158.54 154.293 158.658 154.236 158.795C154.183 158.932 154.156 159.083 154.156 159.25C154.156 159.413 154.183 159.565 154.236 159.705C154.293 159.842 154.37 159.96 154.466 160.06C154.566 160.16 154.683 160.237 154.816 160.29C154.95 160.343 155.095 160.37 155.251 160.37ZM157.79 161V157.5H159.42C159.827 157.5 160.144 157.578 160.37 157.735C160.597 157.892 160.71 158.115 160.71 158.405C160.71 158.692 160.604 158.915 160.39 159.075C160.177 159.232 159.894 159.31 159.54 159.31L159.635 159.1C160.029 159.1 160.334 159.178 160.55 159.335C160.767 159.492 160.875 159.718 160.875 160.015C160.875 160.322 160.759 160.563 160.525 160.74C160.295 160.913 159.959 161 159.515 161H157.79ZM158.595 160.4H159.485C159.672 160.4 159.814 160.363 159.91 160.29C160.007 160.217 160.055 160.103 160.055 159.95C160.055 159.803 160.007 159.695 159.91 159.625C159.814 159.552 159.672 159.515 159.485 159.515H158.595V160.4ZM158.595 158.95H159.35C159.527 158.95 159.66 158.915 159.75 158.845C159.84 158.772 159.885 158.665 159.885 158.525C159.885 158.385 159.84 158.28 159.75 158.21C159.66 158.137 159.527 158.1 159.35 158.1H158.595V158.95ZM161.121 161L162.681 157.5H163.481L165.046 161H164.196L162.916 157.91H163.236L161.951 161H161.121ZM161.901 160.25L162.116 159.635H163.916L164.136 160.25H161.901ZM167.91 157.5H168.72V161H167.91V157.5ZM166.32 161H165.51V157.5H166.32V161ZM167.97 159.565H166.26V158.88H167.97V159.565ZM169.597 161V157.5H170.402V159.78L172.072 157.5H172.832V161H172.032V158.725L170.362 161H169.597ZM174.449 158.91H176.134V159.54H174.449V158.91ZM174.509 160.35H176.414V161H173.704V157.5H176.349V158.15H174.509V160.35Z" fill="black"/>
</svg>
